# xmcd
#
# Track frame offsets: 
#        150
#        12780
#        25525
#        44165
#        57498
#        75305
#        91383
#        104438
#        120100
#        135800
#
# Disc length: 2139 seconds
#
# Revision: 4
# Processed by: cddbd v1.5.2PL0 Copyright (c) Steve Scherf et al.
# Submitted via: ExactAudioCopy v0.99pb4
#
DISCID=6b08590a
DTITLE=Alexis Korner - Get Off My Cloud
DYEAR=1975
DGENRE=British Blues
TTITLE0=I Got Cha Number
TTITLE1=Wasp (Texas Radio)
TTITLE2=Robert Johnson
TTITLE3=Tree Top Fever
TTITLE4=You Are My Sunshine
TTITLE5=Strange 'N Deranged
TTITLE6=Slow Down
TTITLE7=Song For Jimi
TTITLE8=Ain't That Peculiar
TTITLE9=Get Off My Cloud
EXTD=
EXTT0=
EXTT1=
EXTT2=
EXTT3=
EXTT4=
EXTT5=
EXTT6=
EXTT7=
EXTT8=
EXTT9=
PLAYORDER=
